<?xml version="1.0" encoding="UTF-8" standalone="no"?>
<svg xmlns="http://www.w3.org/2000/svg" xmlns:xlink="http://www.w3.org/1999/xlink" width="165.125mm" height="17.896mm" viewBox="-654.497009 128.716003 165.125397 17.896164">
    <path transform="matrix(-1,0,0,1,-565.240112,132.236679)" style="stroke:#000000;stroke-width:0.050000mm;fill:none" d="M55.525391,14.375488L42.169922,14.375488L42.169922,12.263672L53.156738,12.263672L53.156738,6.172363L43.256348,6.172363L43.256348,4.072266L53.156738,4.072266L53.156738,-1.408691L42.584961,-1.408691L42.584961,-3.520508L55.525391,-3.520508L55.525391,14.375488zM30.900391,1.228027C31.408468,1.881783,31.88114,2.562268,32.316406,3.266602L32.432617,3.063965C32.772141,2.501474,33.132416,1.951786,33.512695,1.416016L37.004395,-3.520508L39.824219,-3.520508L33.720215,5.049316L40.64209,14.375488L37.797852,14.375488L33.305176,8.137695C33.008965,7.697474,32.72401,7.24969,32.450684,6.794922L32.054199,7.41748L31.669434,7.991211L27.165039,14.375488L24.234863,14.375488L31.010254,4.914551L24.723145,-3.520508L27.299316,-3.520508L30.900391,1.228027zM24.037598,14.375488L21.522949,14.375488L19.557617,8.955566L12.074219,8.955566L9.986816,14.375488L7.289063,14.375488L14.613281,-3.520508L17.165039,-3.520508L24.037598,14.375488zM-4.212402,8.931152L-3.910645,9.819824C-3.686691,10.477255,-3.469772,11.137621,-3.260254,11.799805L-3.106445,11.304688C-2.877686,10.585274,-2.644043,9.867126,-2.405762,9.150879L1.830078,-3.520508L5.39502,-3.520508L5.39502,14.375488L3.111816,14.375488L3.111816,-0.859375L-2.063965,14.375488L-4.200195,14.375488L-9.400879,-0.603027L-9.400879,14.375488L-11.683594,14.375488L-11.683594,-3.520508L-8.497559,-3.520508L-4.212402,8.931152zM-15.429688,14.375488L-17.797852,14.375488L-17.797852,7.100098L-22.387695,7.100098C-23.471447,7.123154,-24.552876,6.989949,-25.598633,6.70459C-26.722418,6.41278,-27.684654,5.685831,-28.272461,4.68457C-28.826466,3.77268,-29.109949,2.722068,-29.089844,1.655273C-29.122768,0.218961,-28.560486,-1.166955,-27.536133,-2.174316C-26.792215,-2.815482,-25.876387,-3.224157,-24.902344,-3.349609C-24.001331,-3.482667,-23.09075,-3.539834,-22.180176,-3.520508L-15.429688,-3.520508L-15.429688,14.375488zM-32.08252,14.375488L-43.264648,14.375488L-43.264648,12.263672L-34.450684,12.263672L-34.450684,-3.520508L-32.08252,-3.520508L-32.08252,14.375488zM-46.22998,14.375488L-59.584961,14.375488L-59.584961,12.263672L-48.598145,12.263672L-48.598145,6.172363L-58.498535,6.172363L-58.498535,4.072266L-48.598145,4.072266L-48.598145,-1.408691L-59.169922,-1.408691L-59.169922,-3.520508L-46.22998,-3.520508L-46.22998,14.375488zM15.833496,-1.265137C15.483334,-0.141096,15.096706,0.971388,14.674316,2.070313L12.806641,7.026855L18.874023,7.026855L16.908691,1.777344C16.498491,0.664943,16.176054,-0.477873,15.944336,-1.640625L15.833496,-1.265137zM-22.375488,-1.408691C-23.115561,-1.436597,-23.856474,-1.383382,-24.584961,-1.25C-25.694078,-0.926096,-26.496107,0.03796,-26.612793,1.1875C-26.728689,1.940734,-26.609493,2.711492,-26.271484,3.394531C-25.951056,3.990047,-25.415089,4.440763,-24.773438,4.654297C-24.014425,4.895751,-23.220549,5.00862,-22.424316,4.988281L-17.797852,4.988281L-17.797852,-1.408691L-22.375488,-1.408691z"/>
    <path transform="matrix(-1,0,0,1,0,0)" style="stroke:#000000;stroke-width:0.050000mm;fill:none" d="M654.497009,138.104874L649.493225,139.105637"/>
    <path transform="matrix(-1,0,0,1,0,0)" style="stroke:#000000;stroke-width:0.050000mm;fill:none" d="M493.374664,138.104874L489.371613,137.104111"/>
</svg>
